<svg xmlns="http://www.w3.org/2000/svg" viewBox="0 0 1119.28 391.08"><defs><style>.cls-1{fill:#231300;}</style></defs><title>logo</title><g id="Слой_2" data-name="Слой 2"><g id="Слой_1-2" data-name="Слой 1"><path class="cls-1" d="M554.47,235.77s21.2-16.56,41.53-35.65c1.19-1.11,7.93-7.32,9.2-8.83s3.89-3.88,5.38-5.67c15-16.78,28.34-33,42.46-51.4q2.11-2.68,4.17-5.37c11-14.35,20.76-29,28.44-44.37q1-2.12,1.8-4.26T689,75.91q.78-2.48,1.33-5c2.73-9.59-.5-23.5-14.23-23.5-12.92-.6-24.22,7.26-32.17,14.87q-2.26,2.07-4.34,4.26c-8.36,8.74-14.87,18.65-21.69,28.16Q616,97.39,614.19,100c-6.05,8.85-11.81,17.71-17.66,26.36q-1.7,2.71-3.32,5.45t-3.13,5.54q-1.86,3-3.67,6.06t-3.55,6.12q-1.57,2.67-3.09,5.34t-3,5.36q-1.66,3-3.27,6.08t-3.17,6.11q-1.74,3.09-3.42,6.12c-10.05,18.21-18.08,34.77-21.7,46.13-1.21,3.81-2.19,7.39-3,10.74q-.58,2.52-1,4.87c-1,9.91-3,19.38,1.18,29.37a26.82,26.82,0,0,0,2.27,4.6,20.88,20.88,0,0,0,13.44,9.54c15.34,3.63,30.68-1.21,43.39-7.12q3.41-1.62,6.65-3.47a117.08,117.08,0,0,0,22.86-17.17c1.61-1.39,3.35-2.91,5.18-4.53,9.13-8.09,20.64-18.67,30.13-28.64,3.56-3.74,6.86-7.28,9.88-10.56l2.92-3.19a27,27,0,0,1,3-3.65c5.22-5.09,12.49-9.32,10.87-16-6.46,4.23-11.3,9.67-16.33,14.87-1.23,1.19-2.51,2.36-3.86,3.51l-3.3,3.36c-11.78,11.92-25.73,25.5-38.52,36.5q-2.75,2.36-5.43,4.54c-7.8,6.12-15.42,12.46-24.66,16.36a48.08,48.08,0,0,1-7.26,2.42c-12.88,3.09-34.68,3.69-38.12-9.76a23,23,0,0,1-.94-4.57,32.33,32.33,0,0,1-.07-5.73c.55-7.69,9.85-37.65,26.26-72.85q1-2.2,2.09-4.43,1.26-3,2.58-6c.88-2,1.78-3.95,2.7-5.88s2.1-4.14,3.18-6.18c3.15-6.12,7.19-12.16,10.74-18.31q1.06-1.85,2.06-3.7,1.6-2.69,3.23-5.38c4.21-7,8.42-14.05,13-21q1.71-2.61,3.49-5.2c7.58-9.59,14.39-20.4,23.68-29.33q2.32-2.23,4.87-4.3c6.69-4.73,14-12,22.84-9.57,8.07,2.42,4,10.88,3.18,17-.53,2-1.17,4-1.9,6-5.42,14-13.37,27.4-22.74,40.46q-2,2.8-4.1,5.58c-14,18.71-29.35,36.85-47.3,53.76q-2.34,2.29-4.76,4.61c-11.33,10.8-24.15,22-38.65,33.34Z"/><path class="cls-1" d="M695.6,182.67l11.3-2.79s2.83-1.79,0,6.69-25,37-32.7,52.76c0,0,36.34-36.23,59.35-46.45,0,0,12.11-7.36,19-6.31s12.38,1.56,16.28,10.23c0,0,.78,2.34-2.69,8.88a61,61,0,0,1-3.48,5.71c-10.5,16.85-29.87,35-25,54.48a18.77,18.77,0,0,0,4,5.29,16,16,0,0,0,5.52,3.39c6.81,2.44,14.76-.14,21.84-4.63a56,56,0,0,0,5.11-3.67c7.1-3.55,7.91-14.44,16.79-12.62.81,0-1.61,3-1.5,4.78a28.53,28.53,0,0,1-3,4.67,54.26,54.26,0,0,1-43.92,20.18A31.69,31.69,0,0,1,730.54,281a20.22,20.22,0,0,1-4.89-2.83A23.84,23.84,0,0,1,721,260.73a32.93,32.93,0,0,1,1.26-5.85c5.65-15.75,17.77-29.65,26.49-45,1.08-2.17,1.92-3.83,2.53-5.16,1.84-4,1.64-5-.38-7.43-2.69-3.3-14.53,1.65-19.65,4.75-1.6,1-7.85,4.74-16.3,10.82-1.69,1.22-3.47,2.53-5.32,3.93-10.79,9-22.1,16.87-30.41,27.16q-1.54,1.64-3,3.34c-9,10.16-17.3,21.69-23,34.23,0,0-10,5.37-12.38,2.89s29.88-76.17,49.52-98.88C690.35,185.56,693.61,183.16,695.6,182.67Z"/><path class="cls-1" d="M835.33,190.85c-1.63.92-3.45,1.81-5.25,2.71s-3.56,1.81-5.09,2.78c-19.57,12.21-31.68,28.62-37.55,45.94q-.81,2-1.53,4.08c-.37,1.16-.75,2.33-1.11,3.51a54.08,54.08,0,0,0-2.34,10.59,23.7,23.7,0,0,0,0,5.11c.27,10.49,14.34,17.74,28.36,16.92a34.33,34.33,0,0,0,8.3-1.5c15.34-4.53,27.45-13.58,34.72-23.77a39.86,39.86,0,0,0,5.62,11,37.74,37.74,0,0,0,4.4,5.06,30.53,30.53,0,0,0,6.84,4.63c32.19,10.92,62.33-13.83,74-34.26,1-1.8,2.19-3.61,3.31-5.38a28.29,28.29,0,0,0,2.76-5.17,59.06,59.06,0,0,0-6.82,4,74.75,74.75,0,0,0-6.89,5.28c-11.8,11.55-23.47,25.38-44.86,28.29a21.52,21.52,0,0,1-21.4-9.73,17.89,17.89,0,0,1-2.16-5.48c-1.93-9.19,3.84-18.55,8.2-26.88.89-1.49,1.82-3,2.78-4.45,2.85-4.43,5.9-8.83,8.75-13.29,1.08-1.62,2.17-3.18,3.25-4.68,1.78-2.67,4.21-4.93,6.23-7.91,1-1.11,1.92-2.1,2.82-3,0,0,2-1.89,1.92-3.77s-4.34-2.53-7.77-2.66c-10.3,3.87-13.53,12.36-18.57,19.71-1.1,1.67-2.15,3.36-3.17,5.06-4.6,7.1-8.17,14.58-12.1,21.67q-1.18,2.13-2.41,4.2c-6.35,14.91-21.69,29.06-44.88,31.29a26.24,26.24,0,0,1-8.3-1.1c-5.65-1.7-8.07-5.66-9.35-9.5a14,14,0,0,1,.41-5.28,30.55,30.55,0,0,1,1.39-4.13c.57-1.39,1.22-2.78,1.87-4.17a85.25,85.25,0,0,1,39.53-47,60.47,60.47,0,0,1,6-2.82,53.45,53.45,0,0,1,19.93-4.08c8.88,0,15.34,6.22,13.48,12.72a14.33,14.33,0,0,1-1.37,4.82c4-1.13,7.27-2.83,9-5.7a10,10,0,0,0,1.63-4c.71-5.59-2.52-11.25-9.79-14.08-11.3-4-24.22-1.13-35.43,1.56C841,188.45,837.5,190.07,835.33,190.85Z"/><path class="cls-1" d="M1045.1,103.24c-13.1-.29-25.91-3.92-39-4.61-1.45-.16-2.9-.34-4.34-.52-4.34-.56-8.65-1.2-12.94-1.84-1.72-.26-3.44-.51-5.17-.73-16.79-1.65-33.34-4.07-50.16-.67l-3.62.64-3.6.66c-17.6,4.36-33.61,12.83-50.2,20.53-2.14,1-4,1.84-5.76,2.66-5.14,2.43-8.52,4.29-11,6.27l1.49.92a2.72,2.72,0,0,1,.79.25l1.13.58c1.21.45,2.42.88,3.65,1.22a22.93,22.93,0,0,0,5.19-.5,21.69,21.69,0,0,0,2.4-.82c1.08-.53,2-1.23,3-1.8.93-.77,2-1.59,3.19-2.43C895.87,112.62,913,104.15,931,101.26q1.94-.19,3.88-.31c17.07-1,33.62,2.6,50.76,3.85l5.33.65,4,.51,4,.54c17,1.89,34.07,4.31,51.25,3.93q2.42,0,4.84-.11,2.78,0,5.54-.18c12.89-.6,25.51-2.1,38.16-5.61,1.93-.55,3.82-1.15,5.67-1.8a61.42,61.42,0,0,0,14.83-7.35s-5.19,1.77-14,3.72c-1.75.39-3.65.79-5.67,1.18-13.41,1.8-26.94,4.34-40.31,3.85-1.91-.07-3.82-.2-5.72-.42-1.41-.11-2.81-.2-4.2-.2S1046.56,103.34,1045.1,103.24Z"/><path class="cls-1" d="M1077.33,45.09c-12.92-.6-24.22,7.26-32.17,14.87q-2.26,2.07-4.34,4.26c-8.36,8.74-14.87,18.65-21.69,28.16q-1.86,2.66-3.67,5.31c-6.05,8.85-11.81,17.71-17.66,26.36q-1.7,2.71-3.32,5.45T991.34,135q-1.86,3-3.67,6.06t-3.55,6.12q-1.57,2.67-3.09,5.34t-3,5.36q-1.66,3-3.27,6.08t-3.17,6.11q-1.74,3.09-3.42,6.12c-10.05,18.21-18.08,34.77-21.7,46.13-1.21,3.81-2.19,7.39-3,10.74q-.58,2.52-1,4.87c-2.66,15.16-3.64,40.64,22.16,44.36a56,56,0,0,0,6.59.77c11,.63,21.77-1.91,32-6.1,2.93-1.21,5.8-2.56,8.51-4,8.92-4.41,15.79-10.16,22.86-16.14-1.56,0-3.13,0-4.69,0-8.28,3.64-16.31,7.7-24.84,11.18a70,70,0,0,1-7.55,2.37,54.72,54.72,0,0,1-16.82,1.63,36.49,36.49,0,0,1-8.45-2.11,34.36,34.36,0,0,1-7.39-3.87,20.7,20.7,0,0,1-9.59-17.4,18.67,18.67,0,0,1,1.35-5.81,30,30,0,0,1,3.7-6.5,58.66,58.66,0,0,1,5.38-6.27c23.75-20.65,42.23-43.22,61.61-65.13q2.75-3.2,5.48-6.44c7.28-8.63,14.44-17.47,21.51-26.67q2.12-2.68,4.17-5.37c11-14.35,20.77-29,28.44-44.37q1-2.12,1.8-4.26t1.51-4.31q.78-2.48,1.33-5C1094.28,59,1091.05,45.09,1077.33,45.09Zm2.38,28.45c-.53,2-1.17,4-1.9,6-5.42,14-13.37,27.4-22.74,40.46q-2,2.8-4.1,5.58c-8.4,11.23-17.29,22.25-26.93,32.92q-2.41,2.67-4.89,5.31c-17,15.85-33.57,32.6-52,47.89,5.83-13.11,9.72-26.94,17.05-40.25q1.26-3,2.58-6c.88-2,1.78-3.95,2.7-5.88s2.1-4.14,3.18-6.18c3.15-6.12,7.19-12.16,10.74-18.31q1.06-1.85,2.06-3.7,1.6-2.69,3.23-5.38c4.21-7,8.42-14.05,13-21q1.71-2.61,3.49-5.2c7.58-9.59,14.39-20.4,23.68-29.33q2.32-2.23,4.87-4.3c6.69-4.73,14-12,22.84-9.57C1084.59,59,1080.56,67.46,1079.7,73.54Z"/><path class="cls-1" d="M419.77,40.76c-12.92-.6-24.22,7.26-32.17,14.87q-2.26,2.07-4.34,4.26c-8.36,8.74-14.87,18.65-21.69,28.16q-1.86,2.66-3.67,5.31c-6.05,8.85-11.81,17.71-17.66,26.36q-1.7,2.71-3.32,5.45t-3.13,5.54q-1.86,3-3.67,6.06t-3.55,6.12q-1.57,2.67-3.09,5.34t-3,5.36q-1.66,3-3.27,6.08t-3.17,6.11q-1.74,3.09-3.42,6.12c-10.05,18.21-18.08,34.77-21.7,46.13s-5.2,20.76-5.32,28.38c0,.13,0,.25,0,.38,1.34-.9,2.68-1.77,4-2.59,3.69.2,6.61-3.44,10.5-2.72,1-6.55,4.86-11.65,11.11-16.64,1.71-1.52,3.56-3.18,5.51-5,9.74-8.87,21.85-20.54,30.71-31.18l3.42-4.09,4.16-5c15-16.78,29.56-33.7,43.69-52.12q2.11-2.68,4.17-5.37c11-14.35,20.76-29,28.44-44.37q1-2.12,1.8-4.26t1.51-4.31q.78-2.48,1.33-5C436.73,54.67,433.5,40.76,419.77,40.76Zm2.38,28.45c-.53,2-1.17,4-1.9,6-5.42,14-13.37,27.4-22.74,40.46q-2,2.8-4.1,5.58c-14,18.71-29.35,36.85-47.3,53.76q-2.34,2.29-4.76,4.61-14.38,13.71-32.08,28.1c4-10.75,9.16-23.1,15.26-36.17q1-2.2,2.09-4.43,1.26-3,2.58-6c.88-2,1.78-3.95,2.7-5.88s2.1-4.14,3.18-6.18c3.15-6.12,7.19-12.16,10.74-18.31q1.06-1.85,2.06-3.7,1.6-2.69,3.23-5.38c4.21-7,8.42-14.05,13-21q1.71-2.61,3.49-5.2c7.58-9.59,14.39-20.4,23.68-29.33q2.32-2.23,4.87-4.3c6.69-4.73,14-12,22.84-9.57C427,54.67,423,63.14,422.14,69.21Z"/><path class="cls-1" d="M543.21,231.59c-2.27,1.77-4.52,3.57-6.77,5.37C515,253.88,485.8,283,450.33,270.2a10.14,10.14,0,0,1-3.32-4.09,14.72,14.72,0,0,1-.28-9.81c.24-1.56.57-3.23,1-5a68.22,68.22,0,0,1,2.22-7.17c15.44-7.77,33.91-12.86,47.53-23.44q3.56-2.35,6.88-4.88a77.73,77.73,0,0,0,16.93-17.34,57.32,57.32,0,0,0,4.37-7.61,15.45,15.45,0,0,0,1.8-5.56c.4-6.35-5.65-10.73-5.65-10.73a21.27,21.27,0,0,0-11.91-2.42,59.09,59.09,0,0,0-8.1,1.32,51.3,51.3,0,0,0-8.87,3.36c-28.52,12.92-44.07,35.49-55.27,57.25q-.92,1.89-1.7,3.67c-1,2.38-1.89,4.62-2.58,6.72q-3.51,1.84-7,3.73c-10.87,6.69-21.79,14.89-34.14,20.28a76.44,76.44,0,0,1-7.6,2.86c-8.72,2.89-21.36,4.35-27.19-2.21-10.7-14.56,4.86-28.4,12-41.65q1.57-2.28,3.21-4.56t3.37-4.61c1.25-1.78,2.44-3.55,3.53-5.31a61,61,0,0,0,3.48-5.71c3.47-6.54,2.69-8.88,2.69-8.88-3.9-8.67-9.42-9.19-16.28-10.23s-19,6.31-19,6.31c-11.51,5.11-26.34,16.72-38.3,27.06-2.39,2.07-4.67,4.08-6.78,6-5.32,4.48-9.21,8.85-14.07,13.22,1.94-2.18,1.94-5.82,4.49-8.28.92-1.53,1.9-3.11,2.92-4.71,3.06-4.82,6.5-9.93,9.83-14.86-2.31-.11-4.51-1.28-4.52-3.51-.06-8.7,3.34-17,7.8-24.89a25.28,25.28,0,0,0-4.56,2.66c-19.65,22.71-51.95,96.4-49.52,98.88s12.38-2.89,12.38-2.89a119.55,119.55,0,0,1,10.23-18q2-2.86,4-5.62c10.82-15.86,26.38-28.24,42.17-41.1,1.85-1.4,3.63-2.71,5.32-3.93,8.46-6.09,14.71-9.86,16.3-10.82,5.11-3.1,17-8.05,19.65-4.75,2,2.48,2.22,3.44.38,7.43-.61,1.33-1.46,3-2.53,5.16-1.09,1.91-2.24,3.81-3.41,5.68s-2.39,3.74-3.61,5.59c-9,15.77-21.63,31.06-18.71,48.54,1.94,10.92,18.47,13.11,30.91,12.21a53.2,53.2,0,0,0,7.22-1.43c2.43-.59,4.85-1.32,7.23-2.15s4.74-1.76,7.06-2.77c2.79-1.21,5.53-2.54,8.24-3.94,11.29-4.83,20-12.12,30.74-17.94-3.89,10.19,3.89,21.84,16.53,25.48a41.82,41.82,0,0,0,6.39,1.3,49.08,49.08,0,0,0,6.48.36c32.83-.94,55.8-23.12,80.23-37.43,3.19-1.87,13.49-9.28,13.49-9.28l4.51-16.2Zm-86.4-1.25c12.47-18.71,27.05-36.19,49.73-49.39,7.13-2.82,9.29,0,9.29,0a8.81,8.81,0,0,1,1.48,5,13.64,13.64,0,0,1-.94,4.71c-5.07,10.85-14.17,20.28-25.38,28.09q-3.36,2.34-7,4.48c-7,3.72-13.78,8.08-23,11q-4,1.53-8.07,2.84A51.56,51.56,0,0,1,456.81,230.34Z"/><path class="cls-1" d="M317.76,35.83a14.32,14.32,0,0,0-4.19-2.74,35.91,35.91,0,0,0-6.15-1.47c-5-12.73-15.5-21.44-27.92-26.41Q276.83,4.14,274,3.3A61.49,61.49,0,0,0,246.88.42a60.81,60.81,0,0,0-6.76,1.18,52.41,52.41,0,0,0-30.88,20.08,50.39,50.39,0,0,0-3.26,5c-9.62,19-9,40.69-5.7,60.7q.42,2.62.92,5.23.62,3.27,1.34,6.53t1.54,6.5c4.69,18.65,11.87,36.26,15.23,55.14q.46,2.47.83,5t.65,5.06c1,8,1,16.25,1,24.57-.09,1.46-.21,2.91-.38,4.33q-.18,2.87-.48,5.72t-.72,5.7q-.42,2.84-1,5.66c-5.27,22.5-19.64,44.21-42.46,54.76q-2.95,1.58-6,3a126.35,126.35,0,0,1-24,8.51q-2.5.61-5,1.11c-8.78.87-17.27,3.22-26.42,3.22,4.57-4.69,11.1-8.8,15.66-13.45l3.93-3.84c6.49-6.4,12.77-12.88,17.81-20q1.73-2.31,3.44-4.84c12.53-18.53,23.87-45.18,26.85-67.08q.41-3,.6-5.85a85.2,85.2,0,0,0-.31-9.65c-.15-1.6-.36-3.19-.63-4.77a29.71,29.71,0,0,0-.92-5.15c-1.76-4.48-3.72-9.18-7.45-13.07a36.8,36.8,0,0,0-5.33-4.59c-17.06-12.06-43-9-58.65,3a70.89,70.89,0,0,0-10.55,8.72q-2.4,2.41-4.54,5A88.07,88.07,0,0,0,82.1,173.66q-1.18,2.69-2.2,5.43a253.88,253.88,0,0,0-9.61,35.32q-.61,3-1.16,6t-1,6q-.45,3-.86,6c-1.58,13.94-3.54,28-5.54,41.95q-.43,3-.89,6c-2.14,14-4.88,28-10.83,41.13q-.68,1.76-1.4,3.52C37.13,353,18.18,377.3,0,390.08q2.33.46,4.66,1c5.61-2.74,13.21-7.67,22.75-16.57C40.61,362.19,50,346,56.08,332.56c.87-1.92,1.68-3.79,2.42-5.57,2.24-5.44,4.25-10.92,6.08-16.41q.91-2.75,1.75-5.49c4-12.93,6.58-25.84,9.95-38.91.34-1.74.65-3.48.93-5.21,2-12.15,2.93-24.31,6.08-36.06q.55-2.35,1.16-4.71c1-4.16,2.05-8.31,3.14-12.43q.82-3.09,1.7-6.17c5.16-19.17,13-39.12,29.53-53.29a39.16,39.16,0,0,1,4-3.24,36,36,0,0,1,14.7-6.07c13.06-1.76,26.13,3.52,32.17,13.93A22.72,22.72,0,0,1,173,161a31.87,31.87,0,0,1,.82,5.59,50.08,50.08,0,0,1-2.21,16.82q-.45,1.71-1,3.58c-2.69,8.71-7.64,19.9-16.48,33.73a275.88,275.88,0,0,1-20.79,28.47q-2.1,2.51-4.2,4.89c-1.48,1.74-3,3.48-4.57,5.21s-3.17,3.44-4.85,5.14c-11.53,10.68-23.29,21.83-38.31,28.28a123.57,123.57,0,0,0,54.06,5.51c2-.1,3.9-.22,5.83-.39a124.49,124.49,0,0,0,46.59-14.34c1.75-1,3.46-2,5.12-3,21-13,37.33-32.34,42.19-55.51q.77-3,1.34-6.07.43-2.28.75-4.58,0-2.34,0-4.68a148.48,148.48,0,0,0-6.69-46.72q-.8-2.54-1.69-5.08c-4.47-17.1-9-34.12-12.14-51.63q-.44-2.62-.85-5.25-1.23-7.88-2.12-15.85-.34-3-.62-6.1c-1.81-14-1.81-28.65,3.79-42.19.67-1.82,1.42-3.61,2.26-5.36,5.87-12.23,16-22.22,32-24.14A48.49,48.49,0,0,1,258,6.68a42.52,42.52,0,0,1,19.52,3.9,30.07,30.07,0,0,1,5.09,3.18,28.4,28.4,0,0,1,9.64,31.7,38.81,38.81,0,0,1-1.42,4.46,41.68,41.68,0,0,1-4.39,8.39,46.43,46.43,0,0,1-4,5.05c-3.82,4.63-9,8.15-14,11-.93.69-1.9,1.39-2.91,2.1,7.88,4.48,18.33,5.06,27.52,2.83a49.48,49.48,0,0,0,5.65-1.84,40.61,40.61,0,0,0,18.36-13.78,31.12,31.12,0,0,0,3.06-5.28C324,51.2,323.61,41.37,317.76,35.83Z"/><path class="cls-1" d="M271.4,27.77A10.22,10.22,0,0,0,266.69,25c-3.69-1.08-8.3,1.8-7.27,5.65,1,2.4,1.53,4.81,4.27,6.53a4.7,4.7,0,0,0,3.15.89l.1,0a5.75,5.75,0,0,0,4.6-2,5.24,5.24,0,0,0,.58-.63,1.8,1.8,0,0,0,.14-.21,5,5,0,0,0,.7-1.06,4.81,4.81,0,0,0,.3-3.42A7.19,7.19,0,0,0,271.4,27.77Z"/></g></g></svg>