<?xml version="1.0" encoding="UTF-8"?>
<!DOCTYPE svg PUBLIC "-//W3C//DTD SVG 1.1//EN" "http://www.w3.org/Graphics/SVG/1.1/DTD/svg11.dtd">
<!-- Creator: CorelDRAW 2017 -->
<svg xmlns="http://www.w3.org/2000/svg" xml:space="preserve" width="107.622mm" height="125.454mm" version="1.1" style="shape-rendering:geometricPrecision; text-rendering:geometricPrecision; image-rendering:optimizeQuality; fill-rule:evenodd; clip-rule:evenodd"
viewBox="0 0 1232 1436"
 xmlns:xlink="http://www.w3.org/1999/xlink">
 <defs>
  <style type="text/css">
   <![CDATA[
    .fil0 {fill:black;fill-rule:nonzero}
   ]]>
  </style>
 </defs>
 <g id="Слой_x0020_1">
  <metadata id="CorelCorpID_0Corel-Layer"/>
  <g id="_2413330064208">
   <path class="fil0" d="M999 424c-3,-3 -7,-6 -12,-8 -6,-2 -17,-4 -17,-4 -14,-35 -43,-59 -77,-73 -5,-2 -10,-4 -15,-5 -24,-8 -50,-11 -75,-8 -6,1 -13,2 -19,3 -36,8 -66,29 -86,56 -3,4 -6,9 -9,14 -27,53 -25,113 -16,168 1,5 2,10 3,14 1,6 2,12 4,18 1,6 3,12 4,18 13,52 33,100 42,153 1,5 2,9 2,14 1,5 1,9 2,14 3,22 3,45 3,68 0,4 -1,8 -1,12 0,5 -1,11 -1,16 -1,5 -1,11 -2,16 -1,5 -2,10 -3,16 -15,62 -54,122 -118,152 -5,3 -11,6 -17,8 -21,10 -43,18 -66,24 -5,1 -9,2 -14,3 -24,2 -48,9 -73,9 13,-13 31,-24 43,-37 4,-4 7,-7 11,-11 18,-18 35,-36 49,-55 3,-4 6,-9 10,-13 35,-51 66,-125 74,-186 1,-6 1,-11 2,-16 0,-9 0,-18 -1,-27 0,-4 -1,-9 -2,-13 0,-5 -1,-10 -3,-14 -5,-12 -10,-25 -21,-36 -5,-5 -10,-9 -15,-13 -47,-33 -119,-25 -162,8 -11,7 -20,15 -29,24 -4,4 -9,9 -13,14 -15,18 -28,39 -37,60 -2,5 -4,10 -6,15 -11,32 -20,65 -27,98 -1,6 -2,11 -3,17 -1,6 -2,11 -3,17 -1,6 -2,11 -2,17 -4,39 -10,78 -15,116 -1,6 -2,11 -2,17 -6,39 -14,78 -30,114 -1,3 -3,7 -4,10 -32,78 -84,145 -135,180 4,1 9,2 13,3 16,-8 37,-21 63,-46 37,-34 63,-79 79,-116 2,-5 5,-10 7,-15 6,-15 12,-30 17,-45 2,-5 3,-10 5,-15 11,-36 18,-72 28,-108 1,-5 2,-10 3,-14 6,-34 8,-67 17,-100 1,-4 2,-9 3,-13 3,-12 6,-23 9,-34 2,-6 3,-11 5,-17 14,-53 36,-108 82,-148 3,-3 7,-6 11,-9 12,-8 26,-14 41,-17 36,-5 72,10 89,39 4,7 8,15 9,22 1,5 2,10 2,15 1,16 -2,31 -6,47 -1,3 -2,6 -3,10 -7,24 -21,55 -46,93 -19,29 -38,56 -58,79 -4,5 -8,9 -12,14 -4,5 -8,10 -13,14 -4,5 -9,10 -13,14 -32,30 -65,60 -106,78 47,16 100,21 150,15 5,0 11,-1 16,-1 45,-5 90,-18 129,-40 5,-3 10,-5 14,-8 58,-36 103,-90 117,-154 1,-6 3,-11 4,-17 1,-4 1,-8 2,-13 0,-4 0,-9 0,-13 1,-44 -5,-87 -19,-129 -1,-5 -3,-9 -5,-14 -12,-47 -25,-95 -34,-143 -1,-5 -2,-10 -2,-15 -2,-15 -4,-29 -6,-44 -1,-6 -1,-11 -2,-17 -5,-39 -5,-79 11,-117 2,-5 4,-10 6,-15 16,-34 44,-62 89,-67 6,-1 12,-2 19,-2 19,-1 38,3 54,11 5,3 10,5 14,9 26,20 38,54 27,88 -1,4 -2,8 -4,12 -3,8 -7,16 -12,23 -3,5 -7,10 -11,14 -11,13 -25,23 -39,30 -3,2 -5,4 -8,6 22,12 51,14 76,8 5,-1 11,-3 16,-5 20,-8 38,-21 51,-38 3,-5 6,-10 8,-15 11,-20 10,-47 -7,-62z"/>
   <path class="fil0" d="M871 401c-3,-3 -8,-6 -13,-8 -10,-3 -23,5 -20,16 3,7 4,13 12,18 3,2 6,3 9,2 0,0 0,0 0,0 5,0 10,-2 13,-5 1,-1 1,-1 2,-2 0,0 0,0 0,-1 1,-1 1,-2 2,-3 2,-3 2,-6 1,-9 -1,-3 -3,-6 -5,-8z"/>
  </g>
  <path class="fil0" d="M0 1424l0 -1060c207,-121 414,-243 621,-364 204,121 407,243 611,364l0 1072 -932 0 0 -23 909 0 0 -1036 -588 -351 -598 351 0 1047 -23 0z"/>
 </g>
</svg>
